Coordinates
version=1
nRows=26
nColumns=22
inDegrees=yes

Units are S.I. units (second, meters, Newtons, ...)
If the header above contains a line with 'inDegrees', this indicates whether rotational values are in degrees (yes) or radians (no).

endheader
time	pelvis_tilt	pelvis_list	pelvis_rotation	pelvis_tx	pelvis_ty	pelvis_tz	hip_flexion_r	hip_adduction_r	hip_rotation_r	knee_angle_r	ankle_angle_r	subtalar_angle_r	hip_flexion_l	hip_adduction_l	hip_rotation_l	knee_angle_l	ankle_angle_l	subtalar_angle_l	lumbar_extension	lumbar_bending	lumbar_rotation
      1.38000000	     -3.98229011	      4.90907596	    -44.06545877	     -1.30941213	      0.86723433	     -0.13470970	      1.53266532	     -1.38025625	      6.63106819	    -17.22751037	     25.74342674	     -4.13362867	     33.61669640	     -9.47249072	     -4.52048549	    -58.34547600	      9.99180140	     -1.46736796	     -3.74474858	     -2.23456982	     20.84603242
      1.39000000	     -3.87427109	      4.98925885	    -44.22560389	     -1.30596254	      0.86693616	     -0.13227718	      1.16029568	     -1.59747655	      6.75615355	    -17.11165687	     25.76403629	     -4.06899407	     33.93884007	     -9.44093897	     -4.72127870	    -56.81221533	      9.96082442	     -1.43879125	     -3.83260530	     -2.36495000	     21.01641329
      1.40000000	     -3.77085462	      5.02850052	    -44.35484895	     -1.30233407	      0.86660996	     -0.12983588	      0.72588902	     -1.79257854	      6.84266234	    -16.95587969	     25.78676902	     -3.98272141	     34.17696374	     -9.42151415	     -4.87279511	    -55.08196411	      9.94924448	     -1.36872362	     -3.94999233	     -2.46353858	     21.13590060
      1.41000000	     -3.69166669	      5.03240689	    -44.45523955	     -1.29852957	      0.86623131	     -0.12739868	      0.25360930	     -1.95354880	      6.90066429	    -16.76758799	     25.80045616	     -3.87687500	     34.35574688	     -9.42132864	     -4.96794302	    -53.17793469	      9.94616727	     -1.27027571	     -4.07569223	     -2.51628424	     21.21248138
      1.42000000	     -3.64349364	      5.01345364	    -44.53297370	     -1.29457489	      0.86578545	     -0.12496162	     -0.23622718	     -2.08300920	      6.92977908	    -16.55318643	     25.79173163	     -3.76320295	     34.49280086	     -9.43934365	     -5.00811026	    -51.12140952	      9.94058450	     -1.16056259	     -4.19634503	     -2.53124383	     21.26205447
      1.43000000	     -3.62213278	      4.97378633	    -44.58892842	     -1.29046115	      0.86527026	     -0.12252666	     -0.74458327	     -2.18528876	      6.93173659	    -16.31572947	     25.77712978	     -3.63599254	     34.58982067	     -9.47480969	     -5.00358280	    -48.93627975	      9.93585964	     -1.04002606	     -4.31132955	     -2.51304946	     21.27941589
      1.44000000	     -3.63178088	      4.92321679	    -44.62695232	     -1.28618419	      0.86468507	     -0.12009932	     -1.25685792	     -2.26472680	      6.89931231	    -16.06020764	     25.75185990	     -3.49841049	     34.65761083	     -9.52387547	     -4.96039839	    -46.64006558	      9.92609205	     -0.91053508	     -4.40900929	     -2.46318100	     21.27693066
      1.45000000	     -3.67522636	      4.86846600	    -44.64999842	     -1.28176689	      0.86402010	     -0.11767338	     -1.75867985	     -2.32029204	      6.85285346	    -15.80034876	     25.72585026	     -3.34271685	     34.70840081	     -9.59016172	     -4.88996043	    -44.25772526	      9.92542091	     -0.76584716	     -4.48351700	     -2.38887126	     21.24174106
      1.46000000	     -3.75900870	      4.81968220	    -44.65707032	     -1.27718267	      0.86327083	     -0.11524040	     -2.24368520	     -2.35802598	      6.74722618	    -15.52174473	     25.67336374	     -3.19637047	     34.76119224	     -9.67225775	     -4.80267617	    -41.81991964	      9.90131794	     -0.62276473	     -4.51464290	     -2.29391737	     21.21936110
      1.47000000	     -3.86290212	      4.77074775	    -44.66047393	     -1.27248251	      0.86246427	     -0.11278518	     -2.71429828	     -2.38111952	      6.64938593	    -15.26016148	     25.62484644	     -3.02038099	     34.79562715	     -9.77318556	     -4.72605386	    -39.34630729	      9.89414388	     -0.44667040	     -4.53062787	     -2.19078090	     21.16368665
      1.48000000	     -4.00930143	      4.73738224	    -44.65510967	     -1.26763418	      0.86156628	     -0.11031394	     -3.14945900	     -2.38875254	      6.52883661	    -14.99844733	     25.55953501	     -2.83880655	     34.85540066	     -9.89561022	     -4.67344285	    -36.88123621	      9.87931407	     -0.25171962	     -4.49316581	     -2.07550388	     21.11408213
      1.49000000	     -4.19015107	      4.71908023	    -44.64543967	     -1.26265794	      0.86058507	     -0.10781391	     -3.55070264	     -2.38568566	      6.40345190	    -14.74524801	     25.48000578	     -2.65018867	     34.94457797	    -10.03974728	     -4.66223794	    -34.46531359	      9.86547493	     -0.02899956	     -4.41144945	     -1.95463042	     21.06452915
      1.50000000	     -4.40142984	      4.71533820	    -44.63083235	     -1.25753239	      0.85953065	     -0.10528565	     -3.92409753	     -2.37729881	      6.27025905	    -14.49472367	     25.38412724	     -2.45671283	     35.07224041	    -10.20048890	     -4.70768003	    -32.14745328	      9.84643878	      0.21819588	     -4.28661986	     -1.83104312	     21.02616522
      1.51000000	     -4.63356114	      4.71828291	    -44.61725811	     -1.25228776	      0.85841299	     -0.10272287	     -4.26806747	     -2.36164866	      6.17002855	    -14.27584291	     25.27842826	     -2.23382125	     35.23784812	    -10.37983901	     -4.82263669	    -29.97491377	      9.85458067	      0.49664827	     -4.13664279	     -1.70772793	     20.97108230
      1.52000000	     -4.89410225	      4.73183201	    -44.59983831	     -1.24689117	      0.85722063	     -0.10011393	     -4.58955878	     -2.34063896	      6.07467638	    -14.05903690	     25.15116584	     -2.02354312	     35.47010281	    -10.57596320	     -5.01012901	    -28.01193986	      9.85153514	      0.72542672	     -3.94732980	     -1.58444539	     20.93809300
      1.53000000	     -5.15008176	      4.73962839	    -44.58708479	     -1.24133211	      0.85600901	     -0.09749181	     -4.91133317	     -2.33015502	      6.01713629	    -13.87109720	     25.01052373	     -1.76546716	     35.73218451	    -10.77276512	     -5.26688406	    -26.29108040	      9.86774863	      0.93988960	     -3.76558911	     -1.46329638	     20.88979726
      1.54000000	     -5.42555131	      4.75784535	    -44.56604302	     -1.23562130	      0.85473611	     -0.09483853	     -5.20611530	     -2.31729489	      6.00283461	    -13.71016452	     24.83478365	     -1.61792934	     36.07054887	    -10.96683338	     -5.56190776	    -24.85912342	      9.87432242	      1.00723202	     -3.55719076	     -1.34760605	     20.81451483
      1.55000000	     -5.64524700	      4.73708672	    -44.56569880	     -1.22970812	      0.85354554	     -0.09213191	     -5.57268827	     -2.33644173	      6.00303800	    -13.56407565	     24.66213178	     -1.19332166	     36.36288937	    -11.14936160	     -5.89671495	    -23.71265049	      9.90337681	      1.15189275	     -3.42326030	     -1.25116189	     20.77880191
      1.56000000	     -5.87366323	      4.72086159	    -44.55881517	     -1.22361583	      0.85232498	     -0.08940819	     -5.92591974	     -2.35846814	      6.04548187	    -13.44175866	     24.44346501	     -0.99772568	     36.71852138	    -11.32045385	     -6.23199237	    -22.89504355	      9.87209839	      1.16132994	     -3.27832119	     -1.15864153	     20.72055482
      1.57000000	     -6.06107722	      4.66410932	    -44.57599365	     -1.21733360	      0.85118726	     -0.08661937	     -6.33893090	     -2.39545929	      6.14000284	    -13.33580682	     24.19568177	     -0.62427560	     37.02319778	    -11.48572627	     -6.52798349	    -22.36259622	      9.86052200	      1.17548550	     -3.19917891	     -1.07648847	     20.70090506
      1.58000000	     -6.20906529	      4.60946521	    -44.58790151	     -1.21078518	      0.85007592	     -0.08380931	     -6.77975136	     -2.47966305	      6.21293724	    -13.25602758	     23.94054349	     -0.17408046	     37.32057790	    -11.60155129	     -6.79584578	    -22.13740603	      9.81492512	      1.19073650	     -3.14550067	     -1.02915519	     20.66465277
      1.59000000	     -6.33487433	      4.54063419	    -44.61563436	     -1.20402354	      0.84901771	     -0.08094763	     -7.24434834	     -2.58039829	      6.31996589	    -13.19800103	     23.63967650	      0.25282310	     37.58430837	    -11.69897241	     -6.99537891	    -22.16946537	      9.71995024	      1.20886448	     -3.11853748	     -0.99499347	     20.65314458
      1.60000000	     -6.43425257	      4.45974005	    -44.65294363	     -1.19703891	      0.84801409	     -0.07804812	     -7.73372344	     -2.70175198	      6.45761377	    -13.16548186	     23.29600138	      0.67957834	     37.81917608	    -11.77097604	     -7.12525771	    -22.46470103	      9.56763284	      1.23594674	     -3.12204823	     -0.97693807	     20.65219089
      1.61000000	     -6.51289803	      4.38117210	    -44.69569986	     -1.18978951	      0.84705677	     -0.07511018	     -8.24044148	     -2.85470569	      6.58718743	    -13.14538626	     22.90952040	      1.19626996	     38.02825374	    -11.80688980	     -7.18685222	    -22.99202258	      9.34775158	      1.27652232	     -3.13213606	     -0.98057653	     20.67866483
      1.62000000	     -6.58243043	      4.30726790	    -44.74385150	     -1.18229604	      0.84614807	     -0.07212102	     -8.75223935	     -3.02763271	      6.73772942	    -13.13926246	     22.46465084	      1.69358044	     38.22371431	    -11.81492649	     -7.18458466	    -23.73289895	      9.04872030	      1.30596281	     -3.13808257	     -1.00165184	     20.72429632
      1.63000000	     -6.64069892	      4.25106776	    -44.79598777	     -1.17454305	      0.84528504	     -0.06908252	     -9.25970883	     -3.23417495	      6.88749258	    -13.14908616	     21.96449085	      2.24922236	     38.41335071	    -11.78371528	     -7.12470129	    -24.66293800	      8.66738041	      1.31899003	     -3.12916480	     -1.05151328	     20.79013545
